<svg width="50" height="50" viewBox="0 0 50 50" fill="none" xmlns="http://www.w3.org/2000/svg">
<path fill-rule="evenodd" clip-rule="evenodd" d="M25 50C38.8071 50 50 38.8071 50 25C50 11.1929 38.8071 0 25 0C12.0366 0 1.37775 9.8667 0.123444 22.5H0V50H13.0275C13.2762 47.75 15.1837 46 17.5 46C19.8163 46 21.7238 47.75 21.9725 50H25ZM35 26.25C35 32.4632 29.9632 37.5 23.75 37.5C17.5368 37.5 12.5 32.4632 12.5 26.25C12.5 20.0368 17.5368 15 23.75 15C29.9632 15 35 20.0368 35 26.25Z" fill="#227E98"/>
</svg>
